<svg id="Layer_2" data-name="Layer 2" xmlns="http://www.w3.org/2000/svg" xmlns:xlink="http://www.w3.org/1999/xlink" viewBox="0 0 484.66 488.3"><defs><style>.cls-1,.cls-10{fill:none;}.cls-1{stroke:#c1272d;stroke-linecap:round;stroke-linejoin:round;}.cls-2{fill:url(#linear-gradient);}.cls-3{fill:url(#linear-gradient-2);}.cls-4{fill:url(#linear-gradient-3);}.cls-5{fill:url(#linear-gradient-4);}.cls-6{fill:url(#linear-gradient-5);}.cls-7{fill:url(#radial-gradient);}.cls-8{fill:url(#White_Black);}.cls-9{fill:url(#linear-gradient-6);}.cls-10{stroke:#000;stroke-miterlimit:10;stroke-width:10px;}</style><linearGradient id="linear-gradient" x1="236.12" y1="398.49" x2="489.63" y2="398.49" gradientUnits="userSpaceOnUse"><stop offset="0" stop-color="#65c8d0"/><stop offset="1" stop-color="#0071bc"/></linearGradient><linearGradient id="linear-gradient-2" x1="79.75" y1="231.06" x2="364.27" y2="231.06" gradientUnits="userSpaceOnUse"><stop offset="0" stop-color="#fff"/><stop offset="1"/></linearGradient><linearGradient id="linear-gradient-3" x1="79.75" y1="316.68" x2="260.27" y2="316.68" xlink:href="#linear-gradient-2"/><linearGradient id="linear-gradient-4" x1="260.11" y1="320.21" x2="364.27" y2="320.21" xlink:href="#linear-gradient-2"/><linearGradient id="linear-gradient-5" x1="409.75" y1="235.61" x2="480.72" y2="235.61" xlink:href="#linear-gradient"/><radialGradient id="radial-gradient" cx="246.39" cy="231.62" r="34.01" xlink:href="#linear-gradient-2"/><linearGradient id="White_Black" x1="111" y1="224.56" x2="206.04" y2="224.56" xlink:href="#linear-gradient-2"/><linearGradient id="linear-gradient-6" x1="338.83" y1="329.28" x2="432.31" y2="329.28" xlink:href="#linear-gradient"/></defs><path d="M298.41,254.16a2.51,2.51,0,0,1-2.49-2.24A9.64,9.64,0,0,1,298.4,244c4.47-4.71,13.11-4.41,14.08-4.36a2.5,2.5,0,0,1-.25,5h0c-2-.1-7.75.22-10.2,2.82a4.57,4.57,0,0,0-1.13,3.91,2.51,2.51,0,0,1-2.23,2.75Z" transform="translate(-109.02 -119.24)"/><path class="cls-1" d="M435.4,267.66s-21.21,9.33-25.65-16.39" transform="translate(-109.02 -119.24)"/><path class="cls-2" d="M435.4,267.66a296.87,296.87,0,0,1,44.34,70.91c33.59,77-22.51,164-106.48,165.3-1.07,0-2.15,0-3.23,0,0,0,1.48,45.31-19.32,52.74,0,0-20-14.11-23-56.46,0,0-49.77-23-48.28-72.06,0,0,42.34,14.12,59.43,50.52,0,0,63.14,16.34,69.83-30.46,0,0-20.06-49-75.78-81.72,0,0-83.2-36.4-95.08-70.57,0,0-15.6-44.57,48.28-45.32C286.08,250.57,380.43,218.63,435.4,267.66Z" transform="translate(-109.02 -119.24)"/><polygon class="cls-3" points="79.75 224.56 260.27 244.62 364.27 231.62 176.32 217.5 79.75 224.56"/><polygon class="cls-4" points="79.75 224.56 79.75 370.91 260.11 408.8 260.27 244.62 79.75 224.56"/><polygon class="cls-5" points="364.27 231.62 364.27 370.91 260.11 408.8 260.11 244.62 364.27 231.62"/><circle cx="254.32" cy="162.53" r="24.51"/><circle cx="201.21" cy="162.16" r="4.83"/><path class="cls-6" d="M409.75,251.27s15-28.43.15-49.23c0,0,17.33,2,22.78,13.87,0,0,40.11-14.86,48,12.87,0,0-42.59,25.26-45.32,38.88C435.4,267.66,409.75,276.58,409.75,251.27Z" transform="translate(-109.02 -119.24)"/><ellipse class="cls-7" cx="246.39" cy="231.62" rx="47.52" ry="7.4"/><ellipse class="cls-8" cx="158.52" cy="224.56" rx="47.52" ry="7.4"/><path class="cls-9" d="M373.15,311s39.24-21.6,58.68,8.28c0,0,7.47,31.19-36.54,33.07-6.13.27-12.25.8-18.36,1.46-10.58,1.14-26.62,2.26-38,.31,0,0-4.61-11.88,43.56-16.2,0,0,12.24-5.68,6.12-10.36" transform="translate(-109.02 -119.24)"/><path d="M363.35,284.28h-.21a2.5,2.5,0,0,1-2.29-2.69,33,33,0,0,0-8.43-22.76c-7.79-8.39-25.21-14.17-42.21-14.17-2.5,0-2.5-1.11-2.5-2.5a2.5,2.5,0,0,1,2.5-2.5c18.49,0,37.17,6.34,45.93,15.83A37.52,37.52,0,0,1,365.83,282,2.5,2.5,0,0,1,363.35,284.28Z" transform="translate(-109.02 -119.24)"/><circle class="cls-10" cx="244.76" cy="239.9" r="234.9"/><circle class="cls-10" cx="239.9" cy="248.4" r="234.9"/></svg>